# xmcd CD database file
#
# Track frame offsets:
#	150
#	17162
#	29847
#	46122
#	63700
#	81825
#	99992
#	111527
#	126285
#	137040
#	151187
#	165582
#	180750
#
# Disc length: 2619 seconds
#
# Revision: 0
# Processed by: cddbd v1.5.2PL0 Copyright (c) Steve Scherf et al.
# Submitted via: CDex 1.70beta2
#
DISCID=a80a390d
DTITLE=早川えみ - You and Me and Jazz
DYEAR=2007
DGENRE=Jazz
TTITLE0=Smile
TTITLE1=You and the night and music
TTITLE2=Tea for two
TTITLE3=Almost like being in love
TTITLE4=Till there was you
TTITLE5=Non dimenticar
TTITLE6=Avalon
TTITLE7=It's been a long long time
TTITLE8=But not for me
TTITLE9=Lullaby of Birdland
TTITLE10=Somebody loves me
TTITLE11=On a slow boat to China
TTITLE12=Gone too soon
EXTD=YEAR: 2007
EXTT0=
EXTT1=
EXTT2=
EXTT3=
EXTT4=
EXTT5=
EXTT6=
EXTT7=
EXTT8=
EXTT9=
EXTT10=
EXTT11=
EXTT12=
PLAYORDER=
